<?xml version="1.0" encoding="UTF-8" standalone="no"?>
<svg
   xmlns:dc="http://purl.org/dc/elements/1.1/"
   xmlns:cc="http://creativecommons.org/ns#"
   xmlns:rdf="http://www.w3.org/1999/02/22-rdf-syntax-ns#"
   xmlns:svg="http://www.w3.org/2000/svg"
   xmlns="http://www.w3.org/2000/svg"
   xmlns:sodipodi="http://sodipodi.sourceforge.net/DTD/sodipodi-0.dtd"
   xmlns:inkscape="http://www.inkscape.org/namespaces/inkscape"
   width="3.74667in"
   height="3.74667in"
   viewBox="0 0 1124 1124"
   version="1.1"
   id="svg3"
   sodipodi:docname="elephant_seal.svg"
   inkscape:version="1.0.2 (e86c870879, 2021-01-15)">
  <metadata
     id="metadata9">
    <rdf:RDF>
      <cc:Work
         rdf:about="">
        <dc:format>image/svg+xml</dc:format>
        <dc:type
           rdf:resource="http://purl.org/dc/dcmitype/StillImage" />
      </cc:Work>
    </rdf:RDF>
  </metadata>
  <defs
     id="defs7" />
  <sodipodi:namedview
     pagecolor="#ffffff"
     bordercolor="#666666"
     borderopacity="1"
     objecttolerance="10"
     gridtolerance="10"
     guidetolerance="10"
     inkscape:pageopacity="0"
     inkscape:pageshadow="2"
     inkscape:window-width="1920"
     inkscape:window-height="1050"
     id="namedview5"
     showgrid="false"
     inkscape:zoom="1.7960393"
     inkscape:cx="179.84016"
     inkscape:cy="179.84016"
     inkscape:window-x="0"
     inkscape:window-y="0"
     inkscape:window-maximized="1"
     inkscape:current-layer="svg3" />
  <path
     id="Selection"
     d="m 299.39024,566.59704 c 22.57788,-24.45439 8.0751,-80.98854 -21,-94.14 -25.76776,-14.35503 -57.34924,-12.59228 -82.41375,-26.675 -25.4204,-24.10184 -32.95697,-59.93908 -51.74282,-88.78422 -7.68599,-26.38681 -4.46007,-54.37198 -6.66361,-81.57429 2.4715,-43.43667 21.17328,-85.0829 48.90567,-118.08758 15.92186,-19.20698 39.07274,-31.61575 60.02391,-43.48437 25.61524,-25.4257 56.6536,-45.673927 91.78922,-55.201664 25.80274,-14.899794 42.87811,-3.742463 67.58888,-5.582876 33.5523,-1.370195 72.8264,0.768085 106.09395,14.112387 32.36252,7.908864 63.79463,22.528293 82.36687,51.641593 24.47633,29.53755 56.93297,43.41147 90.77517,55.38868 32.01707,14.66378 34.00416,52.37526 38.17151,82.29629 5.05032,22.26701 13.58678,43.65877 29.24531,60.05027 33.6171,14.43636 62.25777,38.25388 74.11859,73.68693 16.63929,37.26532 29.39182,79.74596 66.75659,102.4358 41.65332,36.42374 50.07622,93.02421 73.02669,140.61854 14.92547,41.3044 28.60994,83.17097 51.82788,120.81017 12.8566,34.01618 19.4141,69.9536 29.1885,104.73402 12.2747,21.2229 16.1739,45.0366 18.9414,68.75532 -6.2572,38.98063 -21.6498,-10.25248 -31.6152,-31.34351 -24.1696,-45.67514 -19.8666,-101.40492 -49.61476,-145.07649 -24.35747,-45.39141 -36.82085,-95.66055 -58.5872,-142.23053 -15.01031,-42.73227 -31.8871,-89.05465 -72.7228,-113.69947 -36.82054,-36.12898 -44.45407,-89.79892 -72.98,-131.36 -17.59546,-19.2101 -47.89131,-23.709 -62.33731,-44.63394 -12.65036,-20.59039 -19.96803,-44.73444 -23.91894,-67.94356 2.09898,-32.30702 -20.45069,-69.42289 -52.63254,-71.38391 -14.97564,-2.85867 -33.19472,-7.64802 -39.59121,-23.32859 -22.63234,-8.78017 -38.32922,-30.7089 -54,-49 C 537.84258,95.87175 512.4839,88.97599 492.04399,82.70204 477.4239,76.345833 451.35724,72.172073 438.09696,71.27372 c -20.99017,-11.48018 -49.1845,14.389986 -64.04438,-2.616936 -21.33504,-3.700161 -30.27473,7.103682 -49.66234,10.940256 -12.99088,7.14303 -31.51154,13.88381 -36,22.72809 -15.923,13.15525 -24.386,29.1415 -42,34.27191 -16.74189,1.62997 -22.16452,17.904 -34.5881,20.1373 -22.50636,25.19355 -41.72269,59.69574 -44.4119,94.8627 -8.94806,27.56132 -1.41804,55.01313 -0.36906,85.6975 14.78698,24.31145 21.78048,51.71629 36.8675,75.52313 26.54768,27.87229 75.87936,47.78463 111.05093,23.49875 32.68904,-12.05692 65.96836,-29.03434 85.81063,-58.71938 -23.50753,-26.45435 7.85348,-69.88666 42.48375,-66.16875 14.36182,-12.36522 -8.68895,-58.48745 16.25054,-58.62089 10.78096,26.74159 -6.30238,67.56793 36.90571,68.32964 19.73998,18.24353 44.98504,33.70166 65.27297,43.39078 -42.19687,32.47345 -79.00453,-66.23656 -116.44172,-23.68328 -19.38911,18.23208 -22.37065,45.94686 -13.86125,69.7525 14.72027,29.88841 35.61022,57.02118 60.04,79.45 27.34584,8.75351 -2.56063,31.24225 -14.33515,43.9162 -27.68561,24.56851 -48.39553,61.22038 -88.84455,65.99857 -18.66554,6.40909 -37.09685,6.48737 -56.43953,5.94789 -31.81306,-3.34749 -91.57876,12.59647 -63.69077,52.68734 13.27998,30.59563 34.13856,58.60755 71.79,59.3375 29.53829,-7.45523 71.85448,-52.5635 101.28,-27.8575 -20.98107,3.17625 -87.14678,36.48652 -32.26625,29.80125 24.93711,-14.06343 53.1288,-5.21755 15.34917,9.55453 -16.3623,12.13527 -41.98863,7.83647 -55.78197,6.09327 -21.85581,-1.87718 -74.0305,-9.96927 -47.1134,32.73502 4.14245,20.16406 7.97904,40.50562 8.91245,61.11593 25.50559,5.03424 50.90799,16.96565 77.85794,15.69885 24.75296,1.97498 51.91283,-3.38067 74.65097,4.80474 -20.49585,16.37991 -51.7313,11.50821 -77.5498,12.24844 -26.50158,2.50513 -51.51084,-5.99594 -76.73911,-12.05203 -15.70712,19.72265 -18.40914,48.7741 -28.39263,72.18477 -17.63362,38.46716 -7.26771,86.10829 -20.45393,120.19249 -28.55007,4.7899 -24.57651,-42.2769 -21.39846,-63.27154 8.08123,-29.60549 -15.9673,-33.80859 7.62658,-66.764 24.92754,-30.00109 15.79261,-71.32074 32.56094,-105.67922 -1.17646,-33.39271 -28.82223,-53.93473 -19.7525,-88.8825 -22.19447,-16.00895 -53.03397,-20.87026 -51.95766,-55.94771 -6.78306,-27.91409 13.71103,-55.18011 35.83766,-70.52229 10.32204,-13.9376 -2.9975,-85.09374 36.84,-24.79 z m 88,-227 c -28.151,-14.31044 -48.55023,-51.0816 -64.19,-77 -7.8617,-20.04466 28.31088,-63.15101 30.13625,-34.075 -52.0435,39.4272 37.33403,69.94519 34.05375,111.075 z m 32,3 c -19.10446,8.61132 -0.45845,20.8759 0,0 z m -13,5 c -2.74755,-1.13807 1.13807,2.74755 0,0 z m 269,54 c 11.45909,-45.27207 85.33109,-38.21061 105.74871,-1.09294 11.6456,25.86435 19.07965,54.42273 41.98863,71.85388 -15.80632,10.29885 -47.39432,9.21908 -67.58406,1.58359 -25.90137,-21.22111 -68.24929,-22.43734 -82.47328,-56.34453 -2.10158,-4.76348 -3.03067,-12.69241 2.32,-16 z m 41,-8 c -36.65684,1.28831 3.54994,54.90213 -7,16 6.21021,-4.18596 1.24573,-11.8015 7,-16 z m -296,33 c -1.27878,6.22144 5.03463,7.40898 0,0 z m -36,5 c -2.74755,-1.13807 1.13807,2.74755 0,0 z m 382,2 c -36.90108,7.80665 -2.15633,25.67385 11.68375,23.61044 -4.53675,-7.55814 -8.08076,-15.58234 -11.68375,-23.61044 z m -383,1 c -7.0859,18.40397 5.49585,52.66067 -24.22,68.13 2.70279,27.35682 -29.11797,66.1389 -14.64625,84.9 23.92216,-1.41416 7.71576,-85.33515 34.86625,-41.03 15.40914,38.15936 41.63353,22.45322 61.22891,-5.46281 14.37732,-33.56119 -2.40724,-78.8975 -33.75641,-102.40844 -6.73184,-9.64469 -16.87748,6.53168 -23.4725,-4.12875 z m -6,135 c -13.818,19.82133 14.27643,15.58831 0,0 z m -86,17 c -6.14004,-7.4129 -9.36564,5.09186 0,0 z" />
</svg>
